<svg xmlns="http://www.w3.org/2000/svg" viewBox="0 0 32 32" shape-rendering="crispEdges">
<rect width="32" height="32" fill="#f1f1ef"/>
<rect x="1" y="1" width="6" height="6" fill="#0b0b0a"/>
<rect x="2" y="2" width="4" height="4" fill="#f0b505"/>
<rect x="7" y="1" width="6" height="6" fill="#0b0b0a"/>
<rect x="8" y="2" width="4" height="4" fill="#2563d9"/>
<rect x="19" y="1" width="6" height="6" fill="#0b0b0a"/>
<rect x="20" y="2" width="4" height="4" fill="#4caf3e"/>
<rect x="25" y="1" width="6" height="6" fill="#0b0b0a"/>
<rect x="26" y="2" width="4" height="4" fill="#7b3fd4"/>
<rect x="1" y="7" width="6" height="6" fill="#0b0b0a"/>
<rect x="2" y="8" width="4" height="4" fill="#e12b8a"/>
<rect x="7" y="7" width="6" height="6" fill="#0b0b0a"/>
<rect x="8" y="8" width="4" height="4" fill="#f0b505"/>
<rect x="13" y="7" width="6" height="6" fill="#0b0b0a"/>
<rect x="14" y="8" width="4" height="4" fill="#2563d9"/>
<rect x="19" y="7" width="6" height="6" fill="#0b0b0a"/>
<rect x="20" y="8" width="4" height="4" fill="#e5322b"/>
<rect x="25" y="7" width="6" height="6" fill="#0b0b0a"/>
<rect x="26" y="8" width="4" height="4" fill="#4caf3e"/>
<rect x="1" y="13" width="6" height="6" fill="#0b0b0a"/>
<rect x="2" y="14" width="4" height="4" fill="#12a69b"/>
<rect x="7" y="13" width="6" height="6" fill="#0b0b0a"/>
<rect x="8" y="14" width="4" height="4" fill="#e12b8a"/>
<rect x="13" y="13" width="6" height="6" fill="#0b0b0a"/>
<rect x="14" y="14" width="4" height="4" fill="#f0b505"/>
<rect x="19" y="13" width="6" height="6" fill="#0b0b0a"/>
<rect x="20" y="14" width="4" height="4" fill="#2563d9"/>
<rect x="25" y="13" width="6" height="6" fill="#0b0b0a"/>
<rect x="26" y="14" width="4" height="4" fill="#e5322b"/>
<rect x="7" y="19" width="6" height="6" fill="#0b0b0a"/>
<rect x="8" y="20" width="4" height="4" fill="#12a69b"/>
<rect x="13" y="19" width="6" height="6" fill="#0b0b0a"/>
<rect x="14" y="20" width="4" height="4" fill="#e12b8a"/>
<rect x="19" y="19" width="6" height="6" fill="#0b0b0a"/>
<rect x="20" y="20" width="4" height="4" fill="#f0b505"/>
<rect x="13" y="25" width="6" height="6" fill="#0b0b0a"/>
<rect x="14" y="26" width="4" height="4" fill="#12a69b"/>
</svg>
